<svg width="805" height="511" viewBox="0 0 805 511" fill="none" xmlns="http://www.w3.org/2000/svg">
<g clip-path="url(#clip0_1_2)">
<path d="M108.49 5.91146C98.2031 8.65625 82.0885 15.1719 72.8333 20.3125C51.9219 31.6302 20.3802 62.4844 9.06249 83.0573L0.494781 98.1406L16.9479 83.7396C65.6354 41.2292 121.521 36.7708 166.089 72.0833C192.833 93.3385 210.661 145.797 205.859 188.656C195.917 272.995 144.146 368.995 54.6614 468.078C12.151 515.047 10.4375 517.792 34.776 502.708C128.719 443.052 221.974 362.479 253.172 314.135C308.714 227.052 320.375 150.255 288.146 83.7396C257.286 20.6562 179.12 -13.2865 108.49 5.91146Z" fill="#BE920F"/>
<path d="M470.542 228.766C448.599 235.625 430.083 255.167 414.656 288.083C407.802 302.479 396.828 319.969 389.974 327.51C380.714 337.109 379.344 339.51 385.172 336.766C389.286 334.708 395.115 328.88 398.198 324.422C405.745 313.109 409.859 313.797 409.859 326.135C409.859 332.995 412.599 337.797 418.083 341.568C428.37 348.422 438.656 344.651 452.714 329.224L463 317.911L449.969 328.88C442.771 335.052 435.229 339.849 432.828 339.849C425.974 339.849 420.141 332.307 420.141 324.078C420.141 314.135 442.083 271.969 453.745 259.281C480.828 230.141 496.255 223.969 509.286 236.995C513.74 241.453 516.141 242.479 516.141 239.396C516.141 234.594 506.198 228.427 493.854 225.339C490.083 224.651 479.458 226.026 470.542 228.766Z" fill="#BE920F"/>
<path d="M339.229 237.682C304.943 260.651 283 317.568 300.49 338.823C305.63 344.651 331.344 344.651 339.573 338.479C345.401 334.365 347.802 334.365 356.031 338.823C361.516 341.568 368.37 342.938 371.458 342.25C375.917 340.88 375.573 340.536 370.089 340.193C366.318 340.193 360.146 337.797 356.714 335.052C350.542 330.594 350.885 330.25 359.802 320.651C373.516 306.25 385.859 279.854 388.255 260.995C389.974 246.255 389.286 243.51 381.401 235.625C369.745 223.969 359.115 224.313 339.229 237.682ZM375.917 236.995C388.599 243.854 381.745 284.651 363.917 307.281C359.458 313.109 358.771 313.109 358.427 308.651C358.427 301.797 350.885 298.365 344.714 302.135C341.63 303.854 340.943 309.339 342.318 318.938C343.688 330.25 343 333.682 337.859 336.422C328.26 341.568 314.885 340.536 312.49 334.365C303.917 312.078 329.63 256.536 356.031 240.427C369.057 232.536 367.344 232.536 375.917 236.995Z" fill="#BE920F"/>
<path d="M754.422 232.88C738.995 242.479 725.969 259.625 712.938 286.708C697.854 318.25 679.682 339.849 668.026 339.849C659.453 339.849 659.453 339.167 661.167 323.74C662.198 313.453 670.083 293.224 681.74 270.255C697.854 238.026 699.568 233.568 693.052 235.625C681.052 239.396 653.281 254.823 649.167 260.651C645.74 265.109 645.74 265.453 649.854 261.682C656.026 256.198 666.995 256.198 666.995 262.026C666.995 264.422 661.51 276.422 654.995 288.422C641.625 313.797 639.568 332.307 649.167 340.88C660.484 351.167 670.766 348.078 689.969 327.51C707.797 308.651 708.141 308.651 708.141 318.25C708.141 349.453 752.026 355.625 776.365 327.854C786.651 316.193 804.479 284.651 804.135 279.167C803.792 277.797 799.682 283.969 794.88 293.568C776.708 328.536 755.453 346.365 737.281 341.906C727.339 339.51 721.167 322.021 724.594 305.911C726.651 295.969 729.396 293.568 740.708 290.141C774.651 280.198 795.224 260.312 793.167 239.74C792.135 229.109 791.109 228.427 778.422 227.396C769.51 227.052 760.938 228.766 754.422 232.88ZM789.052 235.281C792.135 243.167 783.906 259.969 771.568 270.937C760.25 280.536 736.938 290.823 733.51 287.396C727.339 281.224 769.51 230.141 780.479 230.141C784.25 230.141 788.021 232.536 789.052 235.281Z" fill="#BE920F"/>
<path d="M559.682 246.255C555.224 253.453 545.281 271.625 537.396 286.708C520.255 319.625 504.141 339.849 495.229 339.849C483.573 339.849 486.656 316.88 503.458 283.281L518.542 253.797L508.255 254.823C499.344 255.854 495.573 259.625 482.885 280.88C475 294.594 469.516 304.88 471.229 303.854C472.943 302.823 473.969 310.026 473.969 319.625C473.286 333.339 474.656 338.135 479.797 341.906C489.401 348.766 493.516 348.078 505.516 337.797C516.828 328.536 518.542 329.224 512.37 340.193C509.286 346.365 509.625 346.708 518.542 344.651C523.682 343.281 528.484 341.224 529.172 339.849C534.313 326.823 567.911 282.25 581.625 269.911C609.052 245.224 611.797 249.682 594.656 289.453C583.339 315.167 577.854 343.281 584.026 343.281C585.74 343.281 592.255 335.052 597.74 324.766C603.568 314.823 616.255 296.651 625.854 284.651C641.281 265.453 641.625 264.766 628.599 278.823C620.37 288.083 612.484 295.281 611.453 295.281C610.083 295.281 615.568 282.938 623.453 268.198C634.766 246.938 636.823 240.083 633.74 236.651C626.88 229.797 610.427 239.396 580.255 268.198C564.828 283.281 551.453 295.281 551.115 295.281C548.37 295.281 575.453 248.651 582.313 241.109L589.167 233.568H578.542C569.625 233.568 566.198 235.969 559.682 246.255Z" fill="#BE920F"/>
</g>
<defs>
<clipPath id="clip0_1_2">
<rect width="805" height="511" fill="white"/>
</clipPath>
</defs>
</svg>
