<svg width="410" height="697" viewBox="0 0 410 697" fill="none" xmlns="http://www.w3.org/2000/svg">
<g clip-path="url(#clip0_1_11)">
<path d="M178.443 1.20309C173.875 1.59893 168.677 2.22913 166.943 2.70309C165.13 3.17184 162.844 3.48955 161.823 3.41143C160.167 3.3333 156.229 4.27601 148.036 6.79684C146.693 7.19268 144.724 7.50518 143.62 7.50518C142.521 7.50518 140.469 7.90101 138.974 8.37497C134.797 9.71351 125.505 13.0989 122.745 14.2812C121.406 14.9114 119.99 15.3854 119.594 15.3854C119.281 15.3854 118.099 16.0937 116.995 16.9583C115.891 17.8281 114.552 18.5364 114 18.5364C113.448 18.5364 111.479 19.2448 109.667 20.1146C106.281 21.7656 105.651 22.0833 101.63 24.3646C100.37 25.0729 98.1667 26.1771 96.9062 26.8073C95.5677 27.3593 93.8333 28.6198 93.0469 29.4843C92.1771 30.4323 91.2344 31.1406 90.8385 31.1406C89.974 31.1406 84.3021 34.8437 80.2812 37.9948C78.4687 39.4114 76.8177 40.5937 76.4219 40.5937C76.1094 40.5937 74.9271 41.3802 73.7448 42.3281C72.5625 43.3541 70.5937 44.8489 69.4115 45.7135C68.151 46.5833 66.7344 47.7656 66.1823 48.2343C65.5521 48.7864 64.9219 49.2604 64.6823 49.2604C64.2917 49.2604 62.7135 50.677 54.5208 58.4791C51.6875 61.2343 49.1667 63.4427 48.9271 63.4427C48.1406 63.4427 43.7292 68.0885 43.7292 68.9583C43.7292 69.3489 43.1771 69.7448 42.5469 69.7448C41.9167 69.7448 41.3646 69.9791 41.3646 70.375C41.3646 70.6875 40.3437 72.026 39.1614 73.3698C36.7969 76.0468 36.2448 76.5989 29.1562 85.8958C23.9531 92.6666 18.5208 100.391 18.5208 101.021C18.5208 101.255 17.651 102.516 16.5521 103.932C15.4479 105.276 14.2656 106.771 13.9479 107.245C12.6094 109.135 11.3489 111.182 10.875 112.286C10.5625 112.917 9.14582 115.516 7.72395 118.036C6.30728 120.479 5.36457 123.078 5.59895 123.708C5.91666 124.339 5.7552 124.891 5.28645 124.891C4.26041 124.891 0.401031 131.745 0.401031 133.479C0.479157 134.422 0.869783 134.266 2.05207 132.766C5.52082 128.516 8.27603 125.755 16.9427 117.641C28.9167 106.536 29.5469 106.062 34.276 102.833C36.5573 101.333 39.7135 98.8906 41.3646 97.4739C43.0208 96.1354 44.5937 94.9531 44.9114 94.9531C45.3021 94.9531 46.0937 94.401 46.8021 93.7708C50.1094 90.4635 76.8958 76.0468 79.651 76.0468C80.2812 76.0468 81.6198 75.5729 82.5677 74.9427C85.3229 73.2083 103.208 67.4583 105.729 67.5364C106.99 67.6146 108.724 67.2239 109.667 66.6718C110.615 66.1979 113.526 65.802 116.13 65.802C120.464 65.802 122.432 64.8593 119.99 63.9948C119.437 63.8333 119.672 63.7552 120.542 63.9114C121.406 64.0729 128.339 64.3854 135.901 64.5416C151.974 64.8593 155.911 65.2552 159.141 66.5937C160.479 67.1458 163.318 67.8541 165.443 68.1666C167.651 68.4843 171.354 69.3489 173.719 70.0573C176.078 70.7656 179.307 71.7135 180.807 72.1093C183.724 72.8958 196.089 79.0416 202.234 82.8229C214.76 90.5416 217.047 92.0364 217.047 92.6666C217.047 93.0625 217.437 93.3802 217.911 93.3802C218.698 93.3802 221.771 95.8177 226.734 100.469C231.146 104.646 239.104 113.073 239.104 113.703C239.104 114.099 241.073 116.62 243.437 119.375C245.802 122.13 247.771 124.734 247.771 125.047C247.771 125.443 248.875 127.333 250.214 129.302C251.552 131.271 253.286 134.422 254.151 136.312C255.016 138.281 256.042 139.859 256.437 139.859C256.906 139.859 257.224 140.411 257.224 141.042C257.224 141.672 258.01 143.875 258.88 145.922C259.823 148.052 261.005 150.885 261.635 152.307C262.187 153.724 263.214 156.01 263.76 157.427C266.755 164.281 269.354 174.917 273.453 196.974C274.318 201.464 274.714 209.656 274.792 225.333C274.948 248.969 274.005 263.859 271.323 277.724C269.75 285.76 269.432 287.573 267.542 296.63C267.073 298.995 266.281 301.281 265.891 301.672C265.417 302.146 265.104 303.484 265.104 304.745C265.104 307.031 263.214 314.042 261.948 316.406C261.557 317.115 261.005 319.083 260.771 320.74C260.057 324.833 256.359 335.943 255.49 336.495C255.177 336.729 254.859 337.677 254.859 338.62C254.859 340.12 252.969 345.396 249.661 353.115C249.031 354.458 248.557 355.953 248.557 356.427C248.557 356.896 248.245 357.922 247.849 358.708C247.453 359.417 246.51 361.469 245.802 363.203C245.094 364.932 244.224 367.062 243.833 367.927C243.437 368.792 242.573 371.234 241.781 373.286C241.073 375.333 240.13 377.224 239.812 377.458C239.422 377.698 239.104 378.484 239.104 379.193C239.104 380.771 232.646 395.344 231.776 395.734C231.464 395.896 231.385 396.286 231.62 396.682C231.854 397 231.464 398.339 230.833 399.521C230.203 400.781 229.651 402.354 229.651 403.062C229.651 403.771 229.099 404.562 228.469 404.875C227.839 405.109 227.286 405.823 227.286 406.453C227.286 407.083 226.812 407.948 226.26 408.26C225.714 408.578 224.292 411.021 223.109 413.62C221.932 416.219 220.589 418.896 220.198 419.526C219.411 420.792 217.203 425.281 214.682 430.875C213.818 432.844 212.792 434.656 212.318 434.891C211.927 435.125 211.531 436.073 211.531 436.937C211.531 437.807 210.505 439.62 209.245 440.88C207.984 442.141 206.724 444.187 206.411 445.448C206.172 446.63 205.307 448.365 204.599 449.151C203.891 450.016 202.234 452.615 200.974 454.979C199.714 457.344 197.823 460.495 196.719 461.833C195.38 463.646 194.906 465.141 195.146 466.797C195.458 469.161 194.672 470.104 193.964 468.135C193.807 467.661 193.49 467.349 193.255 467.583C192.151 468.922 188.682 474.755 188.682 475.385C188.682 475.776 188.135 476.25 187.505 476.568C186.875 476.802 186.323 477.51 186.323 478.219C186.323 478.927 184.901 481.609 183.172 484.208C181.437 486.807 180.021 489.094 180.021 489.25C180.021 489.724 176.078 495.474 175.448 495.948C174.818 496.417 173.479 498.469 171.354 502.484C170.484 504.062 169.068 505.87 168.203 506.344C167.333 506.896 166.625 508 166.625 508.786C166.625 509.573 166.073 510.365 165.443 510.599C164.812 510.911 164.26 511.542 164.26 512.094C164.26 512.724 163.792 513.672 163.318 514.224C162.766 514.776 160.953 517.297 159.219 519.818C157.568 522.26 155.911 524.307 155.599 524.307C155.281 524.307 153.547 526.672 151.656 529.505C149.844 532.344 147.875 534.865 147.323 535.021C146.776 535.255 146.062 536.281 145.828 537.385C145.516 538.406 144.802 539.906 144.172 540.693C139.292 546.365 137.479 548.651 136.141 550.854C135.271 552.276 133.146 555.109 131.333 557.156C129.521 559.208 125.583 564.089 122.51 568.031C119.437 571.891 115.26 577.01 113.214 579.375C111.167 581.74 108.25 585.281 106.755 587.25C105.255 589.224 103.521 591.193 103.052 591.505C102.5 591.823 102.026 592.844 102.026 593.635C102.026 594.5 101.63 595.208 101.24 595.208C100.37 595.208 98.0885 597.495 95.3281 601.12C94.4635 602.297 92.8073 604.187 91.7083 605.292C90.6042 606.474 87.6094 609.865 85.0885 612.932C82.5677 615.927 76.3437 622.703 71.3021 627.901C54.5208 645.078 52.3177 647.521 51.0573 650.12C50.4271 651.536 49.4792 652.484 49.0833 652.245C48.2969 651.693 45.3021 654.531 45.3021 655.792C45.3021 656.266 44.0417 657.448 42.5469 658.391C41.0521 659.417 39.7917 660.677 39.7917 661.146C39.7917 661.698 39.3958 662.172 38.9219 662.172C37.6614 662.172 31.0469 669.26 31.5156 670.052C31.8333 670.521 31.3594 671.151 30.4948 671.469C28.8385 672.099 23.2448 676.823 23.2448 677.615C23.2448 678.557 18.2812 683.839 15.2083 686.042C13.5573 687.302 12.2187 688.719 12.2187 689.271C12.2187 689.823 10.7187 691.635 8.90624 693.292C7.09374 695.026 6.07291 696.521 6.54687 696.677C7.09374 696.833 8.04166 696.365 8.74999 695.734C9.3802 695.026 10.2448 694.474 10.4844 694.474C10.7969 694.474 12.4531 693.214 14.1875 691.714C15.9219 690.219 17.5729 688.958 17.8906 688.958C18.3594 688.958 24.4271 685.411 31.9896 680.687C32.6979 680.214 35.2969 678.635 37.7396 677.141C40.2604 675.646 43.2552 673.755 44.3594 673.042C46.9583 671.391 51.6875 668.63 55.4687 666.505C59.5625 664.219 82.25 648.859 85.6406 646.021C86.4271 645.391 88.474 644.13 90.2083 643.266C92.0208 642.318 94.776 640.427 96.3542 639.01C97.9323 637.594 100.37 635.859 101.63 635.151C102.974 634.443 104.943 633.021 106.125 631.844C107.302 630.74 110.536 628.531 113.214 626.958C115.969 625.38 118.651 623.568 119.198 623.021C119.828 622.469 121.802 620.891 123.771 619.552C125.661 618.292 127.234 616.875 127.234 616.401C127.234 616.005 127.865 615.375 128.656 615.141C129.365 614.823 131.016 613.802 132.198 612.776C133.458 611.755 134.88 610.964 135.427 610.964C135.979 610.964 137.401 610.099 138.5 609.073C139.604 608.052 143.62 605.135 147.484 602.615C151.266 600.016 155.833 596.547 157.568 594.812C159.219 593.083 161.427 591.115 162.37 590.484C163.318 589.854 166.312 587.646 168.911 585.521C171.589 583.469 174.109 581.818 174.505 581.818C174.979 581.818 175.292 581.344 175.37 580.792C175.37 579.927 184.984 573.229 189.708 570.865C190.891 570.312 191.839 569.292 191.839 568.74C191.839 567.792 193.646 566.219 201.839 559.917C202.865 559.208 204.443 557.948 205.385 557.078C206.411 556.292 208.458 554.714 209.953 553.536C211.453 552.432 213.104 551.094 213.5 550.62C213.974 550.224 215.708 548.807 217.437 547.547C219.172 546.365 222.245 543.609 224.292 541.557C226.344 539.432 228.391 537.698 228.865 537.698C229.885 537.698 230.594 537.146 237.214 530.844C240.13 528.089 242.729 525.88 242.964 525.88C243.281 525.88 245.328 523.911 247.531 521.547C249.74 519.187 251.708 517.219 251.865 517.219C252.339 517.219 263.292 506.974 272.901 497.521C277.469 492.953 283.302 487.516 285.823 485.312C288.266 483.182 290.312 481.057 290.312 480.505C290.312 480.031 291.255 478.771 292.516 477.667C295.906 474.516 311.974 457.266 315.599 452.776C317.411 450.49 319.224 448.677 319.536 448.677C319.854 448.677 320.25 447.891 320.562 446.865C320.797 445.844 322.609 443.24 324.583 441.115C326.474 438.99 328.125 437.016 328.125 436.703C328.125 436.385 328.995 435.286 330.094 434.182C331.198 433.078 332.062 432.052 332.062 431.896C332.062 431.661 334.901 427.25 338.37 421.969C341.833 416.771 344.672 412.281 344.672 411.964C344.672 411.729 345.536 410.391 346.641 408.974C347.745 407.552 348.609 406.135 348.609 405.823C348.609 405.583 349.714 403.849 350.974 402.042C352.312 400.307 353.333 398.099 353.333 397.156C353.333 396.208 354.594 394.083 356.094 392.349C358.693 389.354 365.151 377.458 365.151 375.646C365.151 375.177 365.469 374.625 365.781 374.469C366.573 374.151 369.88 366.193 369.88 364.698C369.88 364.068 370.432 363.594 371.063 363.594C371.693 363.594 372.479 362.651 372.714 361.391C373.031 360.208 373.896 358.318 374.688 357.135C375.552 356.031 376.182 354.849 376.182 354.615C376.182 354.375 377.443 351.542 378.938 348.312C380.438 345.083 381.698 342.01 381.698 341.536C381.698 340.984 382.328 339.646 383.115 338.542C383.901 337.359 385.24 333.896 386.031 330.901C386.818 327.828 388.474 322.943 389.734 319.948C394.224 309.396 399.818 291.115 401.391 282.057C401.708 279.849 402.651 275.125 403.359 271.422C404.073 267.719 404.938 262.911 405.333 260.786C405.724 258.578 406.75 252.75 407.693 247.786C409.271 239.281 409.349 236.917 409.031 210.76C408.641 184.922 408.089 177.359 406.198 173.734C405.88 173.104 405.568 171.135 405.411 169.401C405.333 167.667 404.781 164.516 404.151 162.391C403.521 160.26 402.969 157.505 402.969 156.323C402.969 155.141 402.651 153.88 402.177 153.646C401.786 153.406 401.391 152.146 401.391 150.885C401.391 149.625 400.286 145.531 398.948 141.672C397.609 137.891 396.193 133.396 395.797 131.823C395.406 130.245 394.224 127.255 393.12 125.203C392.016 123.156 391.151 121.031 391.151 120.479C391.151 119.927 390.521 118.823 389.734 118.036C388.943 117.25 387.844 115.359 387.214 113.859C385.161 108.427 381.932 102.042 378.859 97.7083C377.995 96.3698 375.948 93.5364 374.448 91.3281C372.875 89.2031 371.375 86.6041 371.141 85.6562C370.823 84.7135 370.276 83.9218 369.958 83.9218C369.646 83.9218 367.516 81.401 365.229 78.4114C362.87 75.3385 360.661 72.8958 360.271 72.8958C359.875 72.8958 359.401 72.2656 359.089 71.4791C358.849 70.7656 357.828 69.427 356.88 68.5625C355.938 67.6979 354.516 66.0416 353.807 64.7812C353.021 63.5989 352.073 62.651 351.839 62.651C351.526 62.651 349.474 61.0781 347.349 59.1093C345.224 57.1406 343.25 55.5625 342.938 55.5625C342.542 55.5625 342.307 55.0104 342.307 54.3802C342.307 53.75 341.99 53.1979 341.599 53.1979C341.203 53.1979 340.099 52.3333 339.078 51.2291C338.052 50.2083 336.792 49.2604 336.24 49.2604C335.766 49.2604 335.219 48.9479 335.057 48.552C334.823 47.8437 327.573 41.9323 323.401 39.0208C321.901 37.9948 319.776 36.3385 318.672 35.3177C316.547 33.3489 312.687 31.2187 290.943 20.4271C276.448 13.2604 258.562 6.64059 253.599 6.71872C252.26 6.71872 250.922 6.48434 250.604 6.16663C249.74 5.30205 240.599 3.6458 231.854 2.85934C227.604 2.38538 223.901 1.91143 223.583 1.75518C222.401 1.04684 186.714 0.651008 178.443 1.20309ZM12.2187 116.224C12.2187 116.62 11.901 117.01 11.4271 117.01C11.0364 117.01 10.6406 116.62 10.6406 116.224C10.6406 115.75 11.0364 115.437 11.4271 115.437C11.901 115.437 12.2187 115.75 12.2187 116.224Z" fill="#BE920F"/>
</g>
<defs>
<clipPath id="clip0_1_11">
<rect width="410" height="697" fill="white"/>
</clipPath>
</defs>
</svg>
