<svg xmlns="http://www.w3.org/2000/svg" xmlns:xlink="http://www.w3.org/1999/xlink" width="1080" zoomAndPan="magnify" viewBox="0 0 810 809.999993" height="1080" preserveAspectRatio="xMidYMid meet" version="1.0"><rect x="-81" width="972" fill="#ffffff" y="-80.999999" height="971.999992" fill-opacity="1"/><rect x="-81" width="972" fill="#ffffff" y="-80.999999" height="971.999992" fill-opacity="1"/><path fill="#be920f" d="M 166.117188 204.683594 C 158.402344 206.742188 146.316406 211.628906 139.375 215.484375 C 123.691406 223.972656 100.035156 247.113281 91.546875 262.542969 L 85.121094 273.855469 L 97.460938 263.054688 C 133.976562 231.171875 175.890625 227.828125 209.316406 254.3125 C 229.375 270.253906 242.746094 309.597656 239.144531 341.742188 C 231.6875 404.996094 192.859375 476.996094 125.746094 551.308594 C 93.863281 586.535156 92.578125 588.59375 110.832031 577.28125 C 181.289062 532.539062 251.230469 472.109375 274.628906 435.851562 C 316.285156 370.539062 325.03125 312.941406 300.859375 263.054688 C 277.714844 215.742188 219.089844 190.285156 166.117188 204.683594 Z M 166.117188 204.683594 " fill-opacity="1" fill-rule="nonzero"/><path fill="#be920f" d="M 437.65625 371.824219 C 421.199219 376.96875 407.3125 391.625 395.742188 416.3125 C 390.601562 427.109375 382.371094 440.226562 377.230469 445.882812 C 370.285156 453.082031 369.257812 454.882812 373.628906 452.824219 C 376.714844 451.28125 381.085938 446.910156 383.398438 443.566406 C 389.058594 435.082031 392.144531 435.597656 392.144531 444.851562 C 392.144531 449.996094 394.199219 453.597656 398.3125 456.425781 C 406.027344 461.566406 413.742188 458.738281 424.285156 447.167969 L 432 438.683594 L 422.226562 446.910156 C 416.828125 451.539062 411.171875 455.136719 409.371094 455.136719 C 404.230469 455.136719 399.855469 449.480469 399.855469 443.308594 C 399.855469 435.851562 416.3125 404.226562 425.058594 394.710938 C 445.371094 372.855469 456.941406 368.226562 466.714844 377.996094 C 470.054688 381.339844 471.855469 382.109375 471.855469 379.796875 C 471.855469 376.195312 464.398438 371.570312 455.140625 369.253906 C 452.3125 368.738281 444.34375 369.769531 437.65625 371.824219 Z M 437.65625 371.824219 " fill-opacity="1" fill-rule="nonzero"/><path fill="#be920f" d="M 339.171875 378.511719 C 313.457031 395.738281 297 438.425781 310.117188 454.367188 C 313.972656 458.738281 333.257812 458.738281 339.429688 454.109375 C 343.800781 451.023438 345.601562 451.023438 351.773438 454.367188 C 355.886719 456.425781 361.027344 457.453125 363.34375 456.9375 C 366.6875 455.910156 366.429688 455.652344 362.316406 455.394531 C 359.488281 455.394531 354.859375 453.597656 352.285156 451.539062 C 347.65625 448.195312 347.914062 447.9375 354.601562 440.738281 C 364.886719 429.9375 374.144531 410.140625 375.941406 395.996094 C 377.230469 384.941406 376.714844 382.882812 370.800781 376.96875 C 362.058594 368.226562 354.085938 368.484375 339.171875 378.511719 Z M 366.6875 377.996094 C 376.199219 383.140625 371.058594 413.738281 357.6875 430.710938 C 354.34375 435.082031 353.828125 435.082031 353.570312 431.738281 C 353.570312 426.597656 347.914062 424.023438 343.285156 426.851562 C 340.972656 428.140625 340.457031 432.253906 341.488281 439.453125 C 342.515625 447.9375 342 450.511719 338.144531 452.566406 C 330.945312 456.425781 320.914062 455.652344 319.117188 451.023438 C 312.6875 434.308594 331.972656 392.652344 351.773438 380.570312 C 361.542969 374.652344 360.257812 374.652344 366.6875 377.996094 Z M 366.6875 377.996094 " fill-opacity="1" fill-rule="nonzero"/><path fill="#be920f" d="M 650.566406 374.910156 C 638.996094 382.109375 629.226562 394.96875 619.453125 415.28125 C 608.140625 438.9375 594.511719 455.136719 585.769531 455.136719 C 579.339844 455.136719 579.339844 454.625 580.625 443.054688 C 581.398438 435.339844 587.3125 420.167969 596.054688 402.941406 C 608.140625 378.769531 609.425781 375.425781 604.539062 376.96875 C 595.539062 379.796875 574.710938 391.367188 571.625 395.738281 C 569.054688 399.082031 569.054688 399.339844 572.140625 396.511719 C 576.769531 392.398438 584.996094 392.398438 584.996094 396.769531 C 584.996094 398.566406 580.882812 407.566406 575.996094 416.566406 C 565.96875 435.597656 564.425781 449.480469 571.625 455.910156 C 580.113281 463.625 587.824219 461.308594 602.226562 445.882812 C 615.597656 431.738281 615.855469 431.738281 615.855469 438.9375 C 615.855469 462.339844 648.769531 466.96875 667.023438 446.140625 C 674.738281 437.394531 688.109375 413.738281 687.851562 409.625 C 687.59375 408.597656 684.511719 413.226562 680.910156 420.425781 C 667.28125 446.652344 651.339844 460.023438 637.710938 456.679688 C 630.253906 454.882812 625.625 441.765625 628.195312 429.683594 C 629.738281 422.226562 631.796875 420.425781 640.28125 417.855469 C 665.738281 410.398438 681.167969 395.484375 679.625 380.054688 C 678.851562 372.082031 678.082031 371.570312 668.566406 370.796875 C 661.882812 370.539062 655.453125 371.824219 650.566406 374.910156 Z M 676.539062 376.710938 C 678.851562 382.625 672.679688 395.226562 663.425781 403.453125 C 654.9375 410.652344 637.453125 418.367188 634.882812 415.796875 C 630.253906 411.167969 661.882812 372.855469 670.109375 372.855469 C 672.9375 372.855469 675.765625 374.652344 676.539062 376.710938 Z M 676.539062 376.710938 " fill-opacity="1" fill-rule="nonzero"/><path fill="#be920f" d="M 504.511719 384.941406 C 501.167969 390.339844 493.710938 403.96875 487.796875 415.28125 C 474.941406 439.96875 462.855469 455.136719 456.171875 455.136719 C 447.429688 455.136719 449.742188 437.910156 462.34375 412.710938 L 473.65625 390.597656 L 465.941406 391.367188 C 459.257812 392.140625 456.429688 394.96875 446.914062 410.910156 C 441 421.195312 436.886719 428.910156 438.171875 428.140625 C 439.457031 427.367188 440.226562 432.769531 440.226562 439.96875 C 439.714844 450.253906 440.742188 453.851562 444.597656 456.679688 C 451.800781 461.824219 454.886719 461.308594 463.886719 453.597656 C 472.371094 446.652344 473.65625 447.167969 469.027344 455.394531 C 466.714844 460.023438 466.96875 460.28125 473.65625 458.738281 C 477.511719 457.710938 481.113281 456.167969 481.628906 455.136719 C 485.484375 445.367188 510.683594 411.9375 520.96875 402.683594 C 541.539062 384.167969 543.597656 387.511719 530.742188 417.339844 C 522.253906 436.625 518.140625 457.710938 522.769531 457.710938 C 524.054688 457.710938 528.941406 451.539062 533.054688 443.824219 C 537.425781 436.367188 546.941406 422.738281 554.140625 413.738281 C 565.710938 399.339844 565.96875 398.824219 556.199219 409.367188 C 550.027344 416.3125 544.113281 421.710938 543.339844 421.710938 C 542.3125 421.710938 546.425781 412.453125 552.339844 401.398438 C 560.824219 385.453125 562.367188 380.3125 560.054688 377.738281 C 554.910156 372.597656 542.570312 379.796875 519.941406 401.398438 C 508.371094 412.710938 498.339844 421.710938 498.085938 421.710938 C 496.027344 421.710938 516.339844 386.738281 521.484375 381.082031 L 526.625 375.425781 L 518.65625 375.425781 C 511.96875 375.425781 509.398438 377.226562 504.511719 384.941406 Z M 504.511719 384.941406 " fill-opacity="1" fill-rule="nonzero"/></svg>