<svg xmlns="http://www.w3.org/2000/svg" xmlns:xlink="http://www.w3.org/1999/xlink" width="1080" zoomAndPan="magnify" viewBox="0 0 810 809.999993" height="1080" preserveAspectRatio="xMidYMid meet" version="1.0"><rect x="-81" width="972" fill="#ffffff" y="-80.999999" height="971.999992" fill-opacity="1"/><rect x="-81" width="972" fill="#ffffff" y="-80.999999" height="971.999992" fill-opacity="1"/><path fill="#be920f" d="M 408.332031 138.902344 C 404.90625 139.199219 401.007812 139.671875 399.707031 140.027344 C 398.347656 140.378906 396.632812 140.617188 395.867188 140.558594 C 394.625 140.5 391.671875 141.207031 385.527344 143.097656 C 384.519531 143.394531 383.042969 143.628906 382.214844 143.628906 C 381.390625 143.628906 379.851562 143.925781 378.730469 144.28125 C 375.597656 145.285156 368.628906 147.824219 366.558594 148.710938 C 365.554688 149.183594 364.492188 149.539062 364.195312 149.539062 C 363.960938 149.539062 363.074219 150.070312 362.246094 150.71875 C 361.417969 151.371094 360.414062 151.902344 360 151.902344 C 359.585938 151.902344 358.109375 152.433594 356.75 153.085938 C 354.210938 154.324219 353.738281 154.5625 350.722656 156.273438 C 349.777344 156.804688 348.125 157.632812 347.179688 158.105469 C 346.175781 158.519531 344.875 159.464844 344.285156 160.113281 C 343.632812 160.824219 342.925781 161.355469 342.628906 161.355469 C 341.980469 161.355469 337.726562 164.132812 334.710938 166.496094 C 333.351562 167.558594 332.113281 168.445312 331.816406 168.445312 C 331.582031 168.445312 330.695312 169.035156 329.808594 169.746094 C 328.921875 170.515625 327.445312 171.636719 326.558594 172.285156 C 325.613281 172.9375 324.550781 173.824219 324.136719 174.175781 C 323.664062 174.589844 323.191406 174.945312 323.011719 174.945312 C 322.71875 174.945312 321.535156 176.007812 315.390625 181.859375 C 313.265625 183.925781 311.375 185.582031 311.195312 185.582031 C 310.605469 185.582031 307.296875 189.066406 307.296875 189.71875 C 307.296875 190.011719 306.882812 190.308594 306.410156 190.308594 C 305.9375 190.308594 305.523438 190.484375 305.523438 190.78125 C 305.523438 191.015625 304.757812 192.019531 303.871094 193.027344 C 302.097656 195.035156 301.683594 195.449219 296.367188 202.421875 C 292.464844 207.5 288.390625 213.292969 288.390625 213.765625 C 288.390625 213.941406 287.738281 214.886719 286.914062 215.949219 C 286.085938 216.957031 285.199219 218.078125 284.960938 218.433594 C 283.957031 219.851562 283.011719 221.386719 282.65625 222.214844 C 282.421875 222.6875 281.359375 224.636719 280.292969 226.527344 C 279.230469 228.359375 278.523438 230.308594 278.699219 230.78125 C 278.9375 231.253906 278.816406 231.667969 278.464844 231.667969 C 277.695312 231.667969 274.800781 236.808594 274.800781 238.109375 C 274.859375 238.816406 275.152344 238.699219 276.039062 237.574219 C 278.640625 234.386719 280.707031 232.316406 287.207031 226.230469 C 296.1875 217.902344 296.660156 217.546875 300.207031 215.125 C 301.917969 214 304.285156 212.167969 305.523438 211.105469 C 306.765625 210.101562 307.945312 209.214844 308.183594 209.214844 C 308.476562 209.214844 309.070312 208.800781 309.601562 208.328125 C 312.082031 205.847656 332.171875 195.035156 334.238281 195.035156 C 334.710938 195.035156 335.714844 194.679688 336.425781 194.207031 C 338.492188 192.90625 351.90625 188.59375 353.796875 188.652344 C 354.742188 188.710938 356.042969 188.417969 356.75 188.003906 C 357.460938 187.648438 359.644531 187.351562 361.597656 187.351562 C 364.847656 187.351562 366.324219 186.644531 364.492188 185.996094 C 364.078125 185.875 364.253906 185.816406 364.90625 185.933594 C 365.554688 186.054688 370.753906 186.289062 376.425781 186.40625 C 388.480469 186.644531 391.433594 186.941406 393.855469 187.945312 C 394.859375 188.359375 396.988281 188.890625 398.582031 189.125 C 400.238281 189.363281 403.015625 190.011719 404.789062 190.542969 C 406.558594 191.074219 408.980469 191.785156 410.105469 192.082031 C 412.292969 192.671875 421.566406 197.28125 426.175781 200.117188 C 435.570312 205.90625 437.285156 207.027344 437.285156 207.5 C 437.285156 207.796875 437.578125 208.035156 437.933594 208.035156 C 438.523438 208.035156 440.828125 209.863281 444.550781 213.351562 C 447.859375 216.484375 453.828125 222.804688 453.828125 223.277344 C 453.828125 223.574219 455.304688 225.464844 457.078125 227.53125 C 458.851562 229.597656 460.328125 231.550781 460.328125 231.785156 C 460.328125 232.082031 461.15625 233.5 462.160156 234.976562 C 463.164062 236.453125 464.464844 238.816406 465.113281 240.234375 C 465.761719 241.710938 466.53125 242.894531 466.828125 242.894531 C 467.179688 242.894531 467.417969 243.308594 467.417969 243.78125 C 467.417969 244.253906 468.007812 245.90625 468.660156 247.441406 C 469.367188 249.039062 470.253906 251.164062 470.726562 252.230469 C 471.140625 253.292969 471.910156 255.007812 472.320312 256.070312 C 474.566406 261.210938 476.515625 269.1875 479.589844 285.730469 C 480.238281 289.097656 480.535156 295.242188 480.59375 307 C 480.710938 324.726562 480.003906 335.894531 477.992188 346.292969 C 476.8125 352.320312 476.574219 353.679688 475.15625 360.472656 C 474.804688 362.246094 474.210938 363.960938 473.917969 364.253906 C 473.5625 364.609375 473.328125 365.613281 473.328125 366.558594 C 473.328125 368.273438 471.910156 373.53125 470.960938 375.304688 C 470.667969 375.835938 470.253906 377.3125 470.078125 378.554688 C 469.542969 381.625 466.769531 389.957031 466.117188 390.371094 C 465.882812 390.546875 465.644531 391.257812 465.644531 391.964844 C 465.644531 393.089844 464.226562 397.046875 461.746094 402.835938 C 461.273438 403.84375 460.917969 404.964844 460.917969 405.320312 C 460.917969 405.671875 460.683594 406.441406 460.386719 407.03125 C 460.089844 407.5625 459.382812 409.101562 458.851562 410.402344 C 458.320312 411.699219 457.667969 413.296875 457.375 413.945312 C 457.078125 414.59375 456.429688 416.425781 455.835938 417.964844 C 455.304688 419.5 454.597656 420.917969 454.359375 421.09375 C 454.066406 421.273438 453.828125 421.863281 453.828125 422.394531 C 453.828125 423.578125 448.984375 434.507812 448.332031 434.800781 C 448.097656 434.921875 448.039062 435.214844 448.214844 435.511719 C 448.390625 435.75 448.097656 436.753906 447.625 437.640625 C 447.152344 438.585938 446.738281 439.765625 446.738281 440.296875 C 446.738281 440.828125 446.324219 441.421875 445.851562 441.65625 C 445.378906 441.832031 444.964844 442.367188 444.964844 442.839844 C 444.964844 443.3125 444.609375 443.960938 444.195312 444.195312 C 443.785156 444.433594 442.71875 446.265625 441.832031 448.214844 C 440.949219 450.164062 439.941406 452.171875 439.648438 452.644531 C 439.058594 453.59375 437.402344 456.960938 435.511719 461.15625 C 434.863281 462.632812 434.09375 463.992188 433.738281 464.167969 C 433.445312 464.34375 433.148438 465.054688 433.148438 465.703125 C 433.148438 466.355469 432.378906 467.714844 431.433594 468.660156 C 430.488281 469.605469 429.542969 471.140625 429.308594 472.085938 C 429.128906 472.972656 428.480469 474.273438 427.949219 474.863281 C 427.417969 475.511719 426.175781 477.460938 425.230469 479.234375 C 424.285156 481.007812 422.867188 483.371094 422.039062 484.375 C 421.035156 485.734375 420.679688 486.855469 420.859375 488.097656 C 421.09375 489.871094 420.503906 490.578125 419.972656 489.101562 C 419.855469 488.746094 419.617188 488.511719 419.441406 488.6875 C 418.613281 489.691406 416.011719 494.066406 416.011719 494.539062 C 416.011719 494.832031 415.601562 495.1875 415.128906 495.425781 C 414.65625 495.601562 414.242188 496.132812 414.242188 496.664062 C 414.242188 497.195312 413.175781 499.207031 411.878906 501.15625 C 410.578125 503.105469 409.515625 504.820312 409.515625 504.9375 C 409.515625 505.292969 406.558594 509.605469 406.085938 509.960938 C 405.613281 510.3125 404.609375 511.851562 403.015625 514.863281 C 402.363281 516.046875 401.300781 517.402344 400.652344 517.757812 C 400 518.171875 399.46875 519 399.46875 519.589844 C 399.46875 520.179688 399.054688 520.773438 398.582031 520.949219 C 398.109375 521.183594 397.695312 521.65625 397.695312 522.070312 C 397.695312 522.542969 397.34375 523.253906 396.988281 523.667969 C 396.574219 524.082031 395.214844 525.972656 393.914062 527.863281 C 392.675781 529.695312 391.433594 531.230469 391.199219 531.230469 C 390.960938 531.230469 389.660156 533.003906 388.242188 535.128906 C 386.882812 537.257812 385.40625 539.148438 384.992188 539.265625 C 384.582031 539.441406 384.046875 540.210938 383.871094 541.039062 C 383.636719 541.804688 383.101562 542.929688 382.628906 543.519531 C 378.96875 547.773438 377.609375 549.488281 376.605469 551.140625 C 375.953125 552.207031 374.359375 554.332031 373 555.867188 C 371.640625 557.40625 368.6875 561.066406 366.382812 564.023438 C 364.078125 566.917969 360.945312 570.757812 359.410156 572.53125 C 357.875 574.304688 355.6875 576.960938 354.566406 578.4375 C 353.441406 579.917969 352.140625 581.394531 351.789062 581.628906 C 351.375 581.867188 351.019531 582.632812 351.019531 583.226562 C 351.019531 583.875 350.722656 584.40625 350.429688 584.40625 C 349.777344 584.40625 348.066406 586.121094 345.996094 588.839844 C 345.347656 589.722656 344.105469 591.140625 343.28125 591.96875 C 342.453125 592.855469 340.207031 595.398438 338.316406 597.699219 C 336.425781 599.945312 331.757812 605.027344 327.976562 608.925781 C 315.390625 621.808594 313.738281 623.640625 312.792969 625.589844 C 312.320312 626.652344 311.609375 627.363281 311.3125 627.183594 C 310.722656 626.769531 308.476562 628.898438 308.476562 629.84375 C 308.476562 630.199219 307.53125 631.085938 306.410156 631.792969 C 305.289062 632.5625 304.34375 633.507812 304.34375 633.859375 C 304.34375 634.273438 304.046875 634.628906 303.691406 634.628906 C 302.746094 634.628906 297.785156 639.945312 298.136719 640.539062 C 298.375 640.890625 298.019531 641.363281 297.371094 641.601562 C 296.128906 642.074219 291.933594 645.617188 291.933594 646.210938 C 291.933594 646.917969 288.210938 650.878906 285.90625 652.53125 C 284.667969 653.476562 283.664062 654.539062 283.664062 654.953125 C 283.664062 655.367188 282.539062 656.726562 281.179688 657.96875 C 279.820312 659.269531 279.054688 660.390625 279.410156 660.507812 C 279.820312 660.625 280.53125 660.273438 281.0625 659.800781 C 281.535156 659.269531 282.183594 658.855469 282.363281 658.855469 C 282.597656 658.855469 283.839844 657.910156 285.140625 656.785156 C 286.441406 655.664062 287.679688 654.71875 287.917969 654.71875 C 288.269531 654.71875 292.820312 652.058594 298.492188 648.515625 C 299.023438 648.160156 300.972656 646.976562 302.804688 645.855469 C 304.695312 644.734375 306.941406 643.316406 307.769531 642.78125 C 309.71875 641.542969 313.265625 639.472656 316.101562 637.878906 C 319.171875 636.164062 336.1875 624.644531 338.730469 622.515625 C 339.320312 622.042969 340.855469 621.097656 342.15625 620.449219 C 343.515625 619.738281 345.582031 618.320312 346.765625 617.257812 C 347.949219 616.195312 349.777344 614.894531 350.722656 614.363281 C 351.730469 613.832031 353.207031 612.765625 354.09375 611.882812 C 354.976562 611.054688 357.402344 609.398438 359.410156 608.21875 C 361.476562 607.035156 363.488281 605.675781 363.898438 605.265625 C 364.371094 604.851562 365.851562 603.667969 367.328125 602.664062 C 368.746094 601.71875 369.925781 600.65625 369.925781 600.300781 C 369.925781 600.003906 370.398438 599.53125 370.992188 599.355469 C 371.523438 599.117188 372.761719 598.351562 373.648438 597.582031 C 374.59375 596.816406 375.660156 596.222656 376.070312 596.222656 C 376.484375 596.222656 377.550781 595.574219 378.375 594.804688 C 379.203125 594.039062 382.214844 591.851562 385.113281 589.960938 C 387.949219 588.011719 391.375 585.410156 392.675781 584.109375 C 393.914062 582.8125 395.570312 581.335938 396.277344 580.863281 C 396.988281 580.390625 399.234375 578.734375 401.183594 577.140625 C 403.191406 575.601562 405.082031 574.363281 405.378906 574.363281 C 405.734375 574.363281 405.96875 574.007812 406.027344 573.59375 C 406.027344 572.945312 413.238281 567.921875 416.78125 566.148438 C 417.667969 565.734375 418.378906 564.96875 418.378906 564.554688 C 418.378906 563.84375 419.734375 562.664062 425.878906 557.9375 C 426.648438 557.40625 427.832031 556.460938 428.539062 555.808594 C 429.308594 555.21875 430.84375 554.035156 431.964844 553.152344 C 433.089844 552.324219 434.328125 551.320312 434.625 550.964844 C 434.980469 550.667969 436.28125 549.605469 437.578125 548.660156 C 438.878906 547.773438 441.183594 545.707031 442.71875 544.167969 C 444.257812 542.574219 445.792969 541.273438 446.148438 541.273438 C 446.914062 541.273438 447.445312 540.859375 452.410156 536.132812 C 454.597656 534.066406 456.546875 532.410156 456.722656 532.410156 C 456.960938 532.410156 458.496094 530.933594 460.148438 529.160156 C 461.804688 527.390625 463.28125 525.914062 463.398438 525.914062 C 463.753906 525.914062 471.96875 518.230469 479.175781 511.140625 C 482.601562 507.714844 486.976562 503.636719 488.867188 501.984375 C 490.699219 500.386719 492.234375 498.792969 492.234375 498.378906 C 492.234375 498.023438 492.941406 497.078125 493.886719 496.25 C 496.429688 493.886719 508.480469 480.949219 511.199219 477.582031 C 512.558594 475.867188 513.917969 474.507812 514.152344 474.507812 C 514.390625 474.507812 514.6875 473.917969 514.921875 473.148438 C 515.097656 472.382812 516.457031 470.429688 517.9375 468.835938 C 519.355469 467.242188 520.59375 465.761719 520.59375 465.527344 C 520.59375 465.289062 521.246094 464.464844 522.070312 463.636719 C 522.898438 462.808594 523.546875 462.039062 523.546875 461.921875 C 523.546875 461.746094 525.675781 458.4375 528.277344 454.476562 C 530.875 450.578125 533.003906 447.210938 533.003906 446.972656 C 533.003906 446.796875 533.652344 445.792969 534.480469 444.730469 C 535.308594 443.664062 535.957031 442.601562 535.957031 442.367188 C 535.957031 442.1875 536.785156 440.886719 537.730469 439.53125 C 538.734375 438.230469 539.5 436.574219 539.5 435.867188 C 539.5 435.15625 540.445312 433.5625 541.570312 432.261719 C 543.519531 430.015625 548.363281 421.09375 548.363281 419.734375 C 548.363281 419.382812 548.601562 418.96875 548.835938 418.851562 C 549.429688 418.613281 551.910156 412.644531 551.910156 411.523438 C 551.910156 411.050781 552.324219 410.695312 552.796875 410.695312 C 553.269531 410.695312 553.859375 409.988281 554.035156 409.042969 C 554.273438 408.15625 554.921875 406.738281 555.515625 405.851562 C 556.164062 405.023438 556.636719 404.136719 556.636719 403.960938 C 556.636719 403.78125 557.582031 401.65625 558.703125 399.234375 C 559.828125 396.8125 560.773438 394.507812 560.773438 394.152344 C 560.773438 393.738281 561.246094 392.734375 561.835938 391.90625 C 562.425781 391.019531 563.429688 388.421875 564.023438 386.175781 C 564.613281 383.871094 565.855469 380.207031 566.800781 377.960938 C 570.167969 370.046875 574.363281 356.335938 575.542969 349.542969 C 575.78125 347.886719 576.488281 344.34375 577.019531 341.566406 C 577.554688 338.789062 578.203125 335.183594 578.5 333.589844 C 578.792969 331.933594 579.5625 327.5625 580.269531 323.839844 C 581.453125 317.460938 581.511719 315.6875 581.273438 296.070312 C 580.980469 276.691406 580.566406 271.019531 579.148438 268.300781 C 578.910156 267.828125 578.675781 266.351562 578.558594 265.050781 C 578.5 263.75 578.085938 261.386719 577.613281 259.792969 C 577.140625 258.195312 576.726562 256.128906 576.726562 255.242188 C 576.726562 254.355469 576.488281 253.410156 576.132812 253.234375 C 575.839844 253.054688 575.542969 252.109375 575.542969 251.164062 C 575.542969 250.21875 574.714844 247.148438 573.710938 244.253906 C 572.707031 241.417969 571.644531 238.046875 571.347656 236.867188 C 571.054688 235.683594 570.167969 233.441406 569.339844 231.902344 C 568.511719 230.367188 567.863281 228.773438 567.863281 228.359375 C 567.863281 227.945312 567.390625 227.117188 566.800781 226.527344 C 566.207031 225.9375 565.382812 224.519531 564.910156 223.394531 C 563.371094 219.320312 560.949219 214.53125 558.644531 211.28125 C 557.996094 210.277344 556.460938 208.152344 555.335938 206.496094 C 554.15625 204.902344 553.03125 202.953125 552.855469 202.242188 C 552.617188 201.535156 552.207031 200.941406 551.96875 200.941406 C 551.734375 200.941406 550.136719 199.050781 548.421875 196.808594 C 546.652344 194.503906 544.996094 192.671875 544.703125 192.671875 C 544.40625 192.671875 544.050781 192.199219 543.816406 191.609375 C 543.636719 191.074219 542.871094 190.070312 542.160156 189.421875 C 541.453125 188.773438 540.386719 187.53125 539.855469 186.585938 C 539.265625 185.699219 538.554688 184.988281 538.378906 184.988281 C 538.144531 184.988281 536.605469 183.808594 535.011719 182.332031 C 533.417969 180.855469 531.9375 179.671875 531.703125 179.671875 C 531.40625 179.671875 531.230469 179.257812 531.230469 178.785156 C 531.230469 178.3125 530.992188 177.898438 530.699219 177.898438 C 530.402344 177.898438 529.574219 177.25 528.808594 176.421875 C 528.039062 175.65625 527.09375 174.945312 526.679688 174.945312 C 526.324219 174.945312 525.914062 174.710938 525.792969 174.414062 C 525.617188 173.882812 520.179688 169.449219 517.050781 167.265625 C 515.925781 166.496094 514.332031 165.253906 513.503906 164.488281 C 511.910156 163.011719 509.015625 161.414062 492.707031 153.320312 C 481.835938 147.945312 468.421875 142.980469 464.699219 143.039062 C 463.695312 143.039062 462.691406 142.863281 462.453125 142.625 C 461.804688 141.976562 454.949219 140.734375 448.390625 140.144531 C 445.203125 139.789062 442.425781 139.433594 442.1875 139.316406 C 441.300781 138.785156 414.535156 138.488281 408.332031 138.902344 Z M 283.664062 225.167969 C 283.664062 225.464844 283.425781 225.757812 283.070312 225.757812 C 282.777344 225.757812 282.480469 225.464844 282.480469 225.167969 C 282.480469 224.8125 282.777344 224.578125 283.070312 224.578125 C 283.425781 224.578125 283.664062 224.8125 283.664062 225.167969 Z M 283.664062 225.167969 " fill-opacity="1" fill-rule="nonzero"/></svg>